<?xml version="1.0" encoding="iso-8859-1"?>
<!-- Generator: Adobe Illustrator 19.0.0, SVG Export Plug-In . SVG Version: 6.00 Build 0)  -->
<svg xmlns="http://www.w3.org/2000/svg" xmlns:xlink="http://www.w3.org/1999/xlink" version="1.1" id="Capa_1" x="0px" y="0px" viewBox="0 0 511.999 511.999" style="enable-background:new 0 0 511.999 511.999;" xml:space="preserve" width="512px" height="512px">
<g>
	<g>
		<path d="M375.981,213.187c2.65-3.193,2.21-7.928-0.983-10.578c-3.192-2.649-7.928-2.21-10.578,0.982l-29.404,35.428    c-3.514,4.235-4.723,9.927-3.232,15.224c1.491,5.298,5.49,9.523,10.698,11.303l19.456,6.65c0.805,0.275,1.625,0.405,2.431,0.405    c3.123,0,6.041-1.964,7.107-5.084c1.342-3.926-0.753-8.196-4.678-9.538l-19.457-6.65c-0.703-0.24-0.983-0.761-1.095-1.157    c-0.112-0.395-0.144-0.986,0.332-1.559L375.981,213.187z" fill="#FFFFFF"/>
	</g>
</g>
<g>
	<g>
		<path d="M352.825,170.122c-4.118-8.395-14.329-18.148-39.711-16.96c-13.628,0.641-25.656,4.157-26.161,4.306    c-3.978,1.176-6.25,5.354-5.074,9.333c1.177,3.977,5.353,6.25,9.333,5.074c0.107-0.031,10.774-3.15,22.609-3.707    c8.645-0.407,19.482,0.488,24.279,6.602c-0.234,1.517-0.006,3.118,0.752,4.585c1.334,2.584,3.959,4.066,6.679,4.065    c1.161,0,2.34-0.27,3.442-0.839C353.43,180.278,355.122,174.806,352.825,170.122z" fill="#FFFFFF"/>
	</g>
</g>
<g>
	<g>
		<path d="M463.265,217.723c-0.308-0.427-7.668-10.57-18.054-19.417c-19.324-16.463-33.39-15.009-41.785-10.89    c-4.682,2.297-6.695,7.659-4.581,12.208c1.747,3.762,6.215,5.395,9.977,3.647c1.499-0.697,2.66-1.825,3.405-3.169    c13.535-3.434,32.848,18.113,38.856,26.414c1.468,2.033,3.765,3.113,6.095,3.113c1.523,0,3.06-0.461,4.388-1.42    C464.931,225.782,465.692,221.087,463.265,217.723z" fill="#FFFFFF"/>
	</g>
</g>
<g>
	<g>
		<path d="M179.959,291.438c-1.191-3.974-5.38-6.224-9.355-5.036l-19.692,5.91c-0.716,0.213-1.244-0.048-1.565-0.304    c-0.32-0.257-0.691-0.718-0.638-1.46l3.307-45.922c0.298-4.138-2.815-7.734-6.952-8.032c-4.154-0.298-7.734,2.815-8.032,6.953    l-3.307,45.922c-0.395,5.489,1.933,10.821,6.228,14.262c3.008,2.41,6.708,3.677,10.468,3.677c1.609,0,3.23-0.232,4.81-0.706    l19.693-5.91C178.897,299.599,181.152,295.411,179.959,291.438z" fill="#FFFFFF"/>
	</g>
</g>
<g>
	<g>
		<path d="M113.952,236.646c-1.054-2.502-3.146-4.398-5.739-5.201c-28.456-8.815-60.193,15.398-61.531,16.433    c-3.278,2.537-3.876,7.246-1.344,10.526c2.531,3.281,7.248,3.888,10.532,1.36c0.069-0.053,7.067-5.403,16.751-9.739    c6.541-2.929,15.449-5.874,24.063-5.444l-3.477,6.794c-1.89,3.693-0.428,8.219,3.265,10.109c1.095,0.561,2.264,0.827,3.417,0.827    c2.73,0,5.363-1.494,6.693-4.091l7.084-13.842C114.902,241.965,115.006,239.146,113.952,236.646z" fill="#FFFFFF"/>
	</g>
</g>
<g>
	<g>
		<path d="M224.3,194.573c-1.688-0.128-41.514-2.863-60.411,20.164c-1.723,2.099-2.425,4.835-1.926,7.505    c0.498,2.667,2.138,4.962,4.496,6.294l13.533,7.653c1.169,0.661,2.438,0.975,3.691,0.975c2.619,0,5.164-1.373,6.545-3.816    c2.042-3.611,0.771-8.194-2.84-10.236l-6.663-3.768c15.598-11.548,42.011-9.82,42.446-9.789c4.138,0.303,7.738-2.79,8.051-6.924    C231.536,198.494,228.437,194.886,224.3,194.573z" fill="#FFFFFF"/>
	</g>
</g>
<g>
	<g>
		<path d="M377.311,308.81c-6.868-14.001-18.778-24.489-33.534-29.532c-14.759-5.044-30.594-4.038-44.595,2.831    c-6.861,3.366-12.871,7.949-17.817,13.477l0.554-2.537c6.707-26.772,1.976-55.419-12.988-78.614    c-6.069-9.407-10.17-19.76-12.192-30.771l-3.735-20.349c-6.004-32.7-34.491-56.617-67.736-56.869    c-55.255-0.399-108.659,15.618-154.526,46.375c-27.615,18.515-38.225,54.166-25.23,84.768l8.087,19.043    c4.376,10.306,6.652,21.207,6.765,32.4c0.282,27.602,12.106,54.119,32.447,72.775l63.333,61.757    c13.676,13.334,31.852,20.506,50.425,20.504c6.926,0,13.91-0.998,20.732-3.045l25.971-7.794    c25.116-7.538,44.192-28.136,49.784-53.756l11.818-54.146c1.171,0.304,2.414,0.341,3.632,0.05    c31.498-7.527,64.391,2.865,85.847,27.122l3.055,3.453c1.441,1.629,3.498,2.534,5.626,2.534c0.489,0,0.983-0.048,1.474-0.146    c2.623-0.525,4.769-2.405,5.634-4.936C385.185,338.647,384.181,322.81,377.311,308.81z M267.32,289.496    c-0.02,0.077-0.038,0.155-0.055,0.233l-18.888,86.54c-4.429,20.289-19.536,36.6-39.424,42.57l-25.972,7.794    c-19.886,5.969-41.48,0.672-56.349-13.826l-63.418-61.839c-0.058-0.056-0.115-0.111-0.174-0.164    c-17.335-15.859-27.414-38.431-27.653-61.924c-0.133-13.169-2.811-25.994-7.96-38.12l-8.087-19.043    c-10.182-23.977-1.868-51.91,19.767-66.418c42.801-28.7,92.569-43.837,144.055-43.837c0.662,0,1.327,0.002,1.99,0.008    c26.048,0.197,48.368,18.937,53.072,44.558l3.735,20.349c2.379,12.954,7.205,25.135,14.345,36.203    C269.043,242.322,273.057,266.713,267.32,289.496z M298.927,307.941c-2.857-0.001-5.722,0.119-8.59,0.361    c4.034-5.328,9.288-9.677,15.462-12.706c10.398-5.1,22.162-5.848,33.119-2.102c10.96,3.745,19.805,11.534,24.905,21.932    c3.047,6.21,4.54,12.909,4.451,19.631C349.246,317.504,324.471,307.941,298.927,307.941z" fill="#FFFFFF"/>
	</g>
</g>
<g>
	<g>
		<path d="M223.728,312.126c-0.769-2.561-2.843-4.521-5.444-5.145c-2.604-0.625-5.339,0.183-7.185,2.119l-3.183,3.335    c-22.356,23.431-55.621,32.574-86.811,23.861c-2.641-0.738-5.467,0.021-7.383,1.975c-1.918,1.954-2.62,4.797-1.833,7.419    c7.581,25.26,30.835,41.607,55.949,41.607c5.542,0,11.179-0.797,16.753-2.47C215.424,375.574,232.981,342.96,223.728,312.126z     M180.272,370.438c-11.092,3.33-22.817,2.14-33.016-3.35c-6.055-3.26-11.142-7.803-14.972-13.28    c28.395,3.472,57-5.088,78.873-23.779C210.673,348.239,198.646,364.923,180.272,370.438z" fill="#FFFFFF"/>
	</g>
</g>
<g>
	<g>
		<path d="M483.411,120.137c-44.675-32.466-97.466-50.507-152.665-52.174c-33.238-1.007-62.602,21.822-69.835,54.273l-4.083,18.318    c-0.903,4.049,1.648,8.063,5.697,8.966c4.055,0.902,8.064-1.649,8.966-5.698l4.083-18.317    c5.667-25.426,28.649-43.321,54.717-42.524c52.17,1.575,102.064,18.627,144.287,49.311c21.072,15.315,28.325,43.541,17.246,67.117    l-8.8,18.724c-5.602,11.921-8.762,24.636-9.393,37.792c-1.125,23.468-12.048,45.642-29.969,60.836    c-0.062,0.051-0.121,0.104-0.18,0.157l-65.708,59.402c-15.405,13.926-37.183,18.405-56.831,11.689l-25.661-8.77    c-0.815-0.278-1.619-0.573-2.415-0.886c-3.857-1.515-8.221,0.385-9.737,4.248c-1.516,3.862,0.386,8.221,4.248,9.737    c1.009,0.396,2.036,0.773,3.048,1.118l25.658,8.769c7.627,2.607,15.504,3.877,23.327,3.877c17.627,0,34.965-6.458,48.438-18.638    l65.622-59.323c21.03-17.874,33.845-43.927,35.167-71.498c0.537-11.182,3.223-21.989,7.984-32.121l8.8-18.724    C519.562,175.708,510.305,139.682,483.411,120.137z" fill="#FFFFFF"/>
	</g>
</g>
<g>
</g>
<g>
</g>
<g>
</g>
<g>
</g>
<g>
</g>
<g>
</g>
<g>
</g>
<g>
</g>
<g>
</g>
<g>
</g>
<g>
</g>
<g>
</g>
<g>
</g>
<g>
</g>
<g>
</g>
</svg>
